<svg width="247" height="55" xmlns="http://www.w3.org/2000/svg" xmlns:xlink="http://www.w3.org/1999/xlink">
  <defs>
    <ellipse id="path-1" cx="23.35" cy="21.86" rx="23.35" ry="21.86"/>
    <ellipse id="path-3" cx="23.35" cy="21.86" rx="23.35" ry="21.86"/>
  </defs>
  <g id="Page-1" fill="none" fill-rule="evenodd">
    <g id="logo">
      <g id="a-link" transform="translate(6 5)" fill="#F5A623" fill-rule="nonzero">
        <ellipse id="a" cx="23.35" cy="21.86" rx="23.35" ry="21.86"/>
      </g>
      <g id="Group" transform="matrix(1 0 0 -1 6 49)">
        <g id="Clipped">
          <g id="Shape-Clipped">
            <mask id="mask-2" fill="#fff">
              <use xlink:href="#path-1"/>
            </mask>
            <path d="M23.4 16.53c9.39 0 15.47-5.12 15.47-11.44 0-6.31-6.08-11.44-15.47-11.44S7.53-1.22 7.53 5.1c0 6.32 6.48 11.44 15.87 11.44zM0 21.1h47.38H0z" id="Shape" stroke="#F49322" stroke-width="2" mask="url(#mask-2)"/>
          </g>
        </g>
      </g>
      <g id="Group" transform="translate(6 5)">
        <g id="Clipped">
          <g id="Shape-Clipped">
            <mask id="mask-4" fill="#fff">
              <use xlink:href="#path-3"/>
            </mask>
            <path d="M23.9 16.53c9.38 0 15.46-5.12 15.46-11.44 0-6.31-6.08-11.44-15.47-11.44S8.02-1.22 8.02 5.1c0 6.32 6.48 11.44 15.87 11.44zm-.51-16.6l.11 43.8-.11-43.8z" id="Shape" stroke="#F49322" stroke-width="2" mask="url(#mask-4)"/>
          </g>
        </g>
      </g>
      <g id="Group" transform="translate(16 15)" fill-rule="nonzero">
        <ellipse id="Oval" fill="#F58323" cx="13.96" cy="12.96" rx="13.96" ry="12.96"/>
        <path d="M15.83 18.7c5.43-2.4 5.98-6.46 6.03-6.9.06-.62-1.16-1.6-.47-1.7.25-.03 2.59 1.31 2.69 1.81.1.54-1.3-.2-1.41.22a10.17 10.17 0 0 1-6.81 7.25c-4.61 1.5-8.73-.38-10.49-1.32-.61-.33-1.24.59-1.46.2-.25-.45.5-2.09 1.11-2.28.63-.2-.03.89.51 1.3 1.8 1.36 6.69 3 10.3 1.41zM14.1 8.55c-.5.14-.26-1.8 1.53-1.94 1.25-.1 2.12.65 2.15 1.08.03.43-.56-.39-1.66-.28-1.1.11-1.29.94-2.02 1.14zm-4.8 1c.57.99.68 1.95.26 2.16-.42.21-1.22-.42-1.78-1.4s-.68-1.95-.26-2.15c.42-.21 1.22.41 1.79 1.4z" id="Shape" fill="#000"/>
      </g>
      <g id="Group" fill="#000" fill-rule="nonzero">
        <path d="M46 6.95a.9.9 0 0 1-.74.4c-.16 0-.3-.03-.44-.08-.16-.05-.3-.12-.44-.2l-1.15-.7 1.88-2.63 1.14.7c.12.06.22.14.32.23.1.08.18.19.24.3.13.23.1.52-.07.74a.7.7 0 0 1-.4.29.93.93 0 0 1-.49 0c.07.06.13.13.18.2.1.15.13.33.09.5a.71.71 0 0 1-.11.25zm-.64-.47a.26.26 0 0 0 .03-.31.9.9 0 0 0-.31-.28l-.4-.24-.44.61.4.23.18.1.2.04c.13.02.26-.04.33-.15h.01zm.65-1.12a.24.24 0 0 0 .03-.26.75.75 0 0 0-.28-.26l-.34-.2-.4.53.36.23c.1.07.23.1.36.1.11.01.21-.04.27-.13v-.01zm.76 1.36c.2-.02.4 0 .58.07.19.06.36.15.51.27.14.1.26.23.35.37.08.11.12.24.12.37 0 .14-.04.27-.1.4-.09.15-.2.3-.32.43l-.77.87-.56-.43.16-.18a.65.65 0 0 1-.37 0 1.02 1.02 0 0 1-.56-.39.79.79 0 0 1-.14-.25.64.64 0 0 1 .17-.6c.09-.1.22-.18.37-.2.15-.03.3-.01.44.03.17.05.32.13.46.21l.43.3.03-.03c.07-.07.1-.17.07-.26a.5.5 0 0 0-.19-.24.8.8 0 0 0-.3-.14c-.1-.03-.2-.04-.31-.03l-.07-.57zm.47 1.58l-.08-.06a2.36 2.36 0 0 0-.42-.25.47.47 0 0 0-.2-.03.23.23 0 0 0-.16.08.19.19 0 0 0-.05.1.2.2 0 0 0 0 .1.3.3 0 0 0 .06.1l.09.08c.1.08.23.13.37.12a.5.5 0 0 0 .33-.18l.06-.06zm2.6 1.06a.77.77 0 0 0-.04-.25.58.58 0 0 0-.16-.22.5.5 0 0 0-.18-.1.16.16 0 0 0-.17.04.13.13 0 0 0-.03.16c.05.1.1.2.17.28l.14.23c.04.08.06.17.08.26 0 .08 0 .17-.03.25a.57.57 0 0 1-.16.25.76.76 0 0 1-.69.2 1.09 1.09 0 0 1-.33-.13l-.3-.2a1.7 1.7 0 0 1-.34-.45 1.05 1.05 0 0 1-.13-.48h.64c0 .1.01.2.05.3.04.1.1.18.18.26.05.04.1.07.17.09.06.02.13 0 .18-.04a.15.15 0 0 0 .03-.19 1.9 1.9 0 0 0-.18-.3 1.67 1.67 0 0 1-.12-.22.7.7 0 0 1-.07-.23c0-.08 0-.16.03-.24a.57.57 0 0 1 .16-.23.71.71 0 0 1 .67-.18c.11.02.23.06.33.11a1.57 1.57 0 0 1 .6.6 1 1 0 0 1 .12.43h-.61zm1.06 3.57l-.62-.7.4-1.24-.89.68-.51-.57 2.82-2.16.51.57-1.7 1.31 1.24-.03.61.68h-1.43l-.43 1.46zm2.37 1.51l-.08.05-.08.05-.97-1.34a.38.38 0 0 0-.12.14.45.45 0 0 0-.04.17c-.01.14.02.27.1.38a.65.65 0 0 0 .51.27v.6c-.2 0-.4-.05-.56-.14-.2-.11-.35-.26-.47-.43-.1-.13-.18-.28-.22-.43a1 1 0 0 1 .14-.87 1.42 1.42 0 0 1 1.4-.57 1.35 1.35 0 0 1 1 .95.9.9 0 0 1 0 .41c-.04.15-.1.29-.2.4-.11.15-.25.27-.4.36zm-.15-.71c.1-.06.17-.16.2-.26a.39.39 0 0 0-.08-.34.57.57 0 0 0-.33-.23.53.53 0 0 0-.18 0 .46.46 0 0 0-.18.06l.57.77zm1.55 1.26l-.8.41a.4.4 0 0 0-.2.17.24.24 0 0 0 .04.23.74.74 0 0 0 .14.17l-.5.27a1.27 1.27 0 0 1-.29-.34 1.06 1.06 0 0 1-.14-.37.54.54 0 0 1 .02-.3c.04-.08.1-.16.17-.23.09-.08.18-.14.29-.2l.89-.45-.19-.3.52-.27.18.3.56-.28.38.63-.56.28.27.46-.51.26-.27-.44zm.84 3.42c-.15.06-.3.1-.47.11a1.15 1.15 0 0 1-.87-.24c-.25-.2-.4-.48-.4-.79 0-.13.04-.26.12-.37l-.28.12-.3-.62 3.35-1.36.32.67-1.38.56c.12.04.23.09.32.16.12.1.22.2.27.34a.9.9 0 0 1 0 .84c-.06.13-.16.25-.27.34-.12.1-.26.18-.4.24zm-.3-.65a.74.74 0 0 0 .19-.11.5.5 0 0 0 .19-.38.47.47 0 0 0-.05-.22.5.5 0 0 0-.14-.19.6.6 0 0 0-.2-.1.68.68 0 0 0-.63.14.6.6 0 0 0-.14.17.46.46 0 0 0 0 .43.5.5 0 0 0 .14.2l.2.1H55c.07 0 .14-.02.2-.03zm1.17.85c.17.09.32.2.44.35a1.53 1.53 0 0 1 .36.95c0 .14-.05.26-.12.38-.09.11-.2.2-.33.27-.16.1-.34.16-.52.21l-1.16.34-.22-.64.25-.07a.6.6 0 0 1-.3-.18.9.9 0 0 1-.2-.34 1.06 1.06 0 0 1-.06-.27c0-.1 0-.2.04-.29.03-.09.08-.18.16-.25.08-.08.2-.14.31-.17.15-.05.3-.05.45 0 .13.06.25.15.35.26.1.12.19.26.26.4l.19.47h.03c.1-.02.18-.09.22-.18.03-.1.03-.2 0-.3a.7.7 0 0 0-.17-.26 1.03 1.03 0 0 0-.24-.2l.26-.48zm-.55 1.56l-.03-.08a4.05 4.05 0 0 0-.09-.24.98.98 0 0 0-.11-.2.43.43 0 0 0-.15-.11.24.24 0 0 0-.18 0 .21.21 0 0 0-.1.05.22.22 0 0 0-.05.1v.1l.02.12c.04.12.12.22.24.29.12.04.26.04.38 0l.07-.03zm-.5 1.41l3.56-.74.18.74-3.56.75-.18-.75zm.4 1.33l3.6-.58.14.74-3.6.57-.14-.73zm.4 2.25l3.42-.23.06.76-3.42.24-.06-.77zm1.8 2.79a.82.82 0 0 0 .14-.21.54.54 0 0 0 .06-.26.42.42 0 0 0-.04-.19.16.16 0 0 0-.16-.09.15.15 0 0 0-.14.1l-.1.31c-.01.09-.04.17-.07.26a.87.87 0 0 1-.14.23.66.66 0 0 1-.2.16c-.1.05-.2.07-.3.07a.74.74 0 0 1-.65-.3.92.92 0 0 1-.15-.3 1.55 1.55 0 0 1 .04-.87c.05-.17.14-.32.27-.44l.48.4a.82.82 0 0 0-.2.24c-.04.1-.07.2-.07.3 0 .07.02.13.05.18.03.06.1.1.17.09.07 0 .13-.05.16-.11.04-.1.08-.22.1-.33l.08-.24a.64.64 0 0 1 .62-.42c.12 0 .25.02.36.08.1.05.2.12.26.21.06.1.12.19.15.3.03.1.05.2.05.32 0 .16-.02.33-.08.49-.05.15-.13.3-.24.4l-.46-.38zm.5 2.89l-.7-.09-.18 1.21-.67-.08.17-1.21-1.32-.16.11-.75 3.4.42-.3 2.06-.7-.09.19-1.31zm-3.34 2.43l.33.07a.65.65 0 0 1-.21-.3.86.86 0 0 1-.02-.43.78.78 0 0 1 .18-.35.8.8 0 0 1 .28-.2c.1-.04.22-.07.34-.07.12 0 .24.01.36.04l1.45.31-.18.72-1.25-.29a1.3 1.3 0 0 0-.37-.02.31.31 0 0 0-.14.07.3.3 0 0 0-.08.15c-.03.11 0 .23.08.32.09.09.2.15.33.18l1.26.27-.18.71-2.35-.5.17-.68zm-.69 2.7l1.25.4c.06.03.12.04.19.05H56a.3.3 0 0 0 .14-.06.32.32 0 0 0 .1-.14.33.33 0 0 0-.04-.33.5.5 0 0 0-.13-.12.74.74 0 0 0-.18-.08l-1.23-.4.27-.7 2.27.75-.26.67-.31-.1.1.14a.6.6 0 0 1 .07.18v.2a.7.7 0 0 1-.05.22.81.81 0 0 1-.22.33.82.82 0 0 1-.3.17.96.96 0 0 1-.35.03 1.55 1.55 0 0 1-.35-.07l-1.42-.44.28-.7zm-2.68 6.74a.88.88 0 0 1-.33-.32.76.76 0 0 1-.1-.38c.01-.13.04-.27.1-.4.06-.14.13-.27.22-.4l.76-1.04 2.85 1.76-.76 1.04c-.08.1-.16.2-.26.29-.1.09-.2.16-.33.22a.8.8 0 0 1-.8-.07.67.67 0 0 1-.31-.37.74.74 0 0 1 0-.45.93.93 0 0 1-.23.16.83.83 0 0 1-.82-.03zm.52-.6c.1.08.23.1.34.04a.9.9 0 0 0 .3-.28l.26-.36-.65-.4-.26.37-.1.17a.55.55 0 0 0-.06.17.3.3 0 0 0 .17.32v-.02zm1.21.62c.08.06.2.07.29.03a.75.75 0 0 0 .29-.26l.22-.31-.59-.37-.24.34c-.08.1-.12.2-.12.32 0 .1.05.2.14.26h.01zm-1.15.73c.01.18-.02.36-.09.53a1.54 1.54 0 0 1-.7.79.82.82 0 0 1-.4.1c-.14 0-.3-.04-.42-.1a2.34 2.34 0 0 1-.48-.3l-.93-.72.47-.5.2.14a.5.5 0 0 1 0-.33.9.9 0 0 1 .2-.34c.06-.07.13-.13.21-.19a.73.73 0 0 1 .6-.13c.12.03.23.09.32.16.12.09.2.22.23.35a.8.8 0 0 1-.05.4c-.05.16-.13.3-.23.43-.1.14-.2.27-.32.4l.03.02c.07.07.18.1.28.07.1-.03.2-.09.26-.17a.7.7 0 0 0 .15-.27.9.9 0 0 0 .04-.3l.63-.04zm-1.73.41l.07-.07.16-.2a1 1 0 0 0 .12-.19.37.37 0 0 0 .03-.17.2.2 0 0 0-.09-.15.22.22 0 0 0-.1-.05h-.11a.35.35 0 0 0-.1.06.6.6 0 0 0-.1.07.43.43 0 0 0-.13.34c.01.12.08.23.19.3l.06.06zm-1.71 2.4c.09 0 .18-.02.27-.05.09-.03.17-.08.24-.14.05-.04.1-.1.12-.16a.13.13 0 0 0-.04-.16.16.16 0 0 0-.18-.03l-.3.15c-.09.05-.17.1-.26.13s-.18.06-.28.07c-.09 0-.18 0-.27-.02a.63.63 0 0 1-.26-.16.63.63 0 0 1-.22-.63.9.9 0 0 1 .14-.3c.07-.1.14-.2.23-.27.14-.13.3-.24.48-.32.16-.08.34-.12.53-.12v.6c-.11-.01-.22 0-.32.04-.11.03-.21.09-.29.16a.4.4 0 0 0-.1.16c-.03.06 0 .12.04.16.05.05.13.07.2.04.12-.05.23-.1.34-.17.07-.04.15-.08.23-.1a.86.86 0 0 1 .25-.07.7.7 0 0 1 .26.03c.1.03.18.08.25.15.1.08.16.19.2.3.02.1.02.21 0 .32a1.32 1.32 0 0 1-.35.56c-.13.11-.28.2-.44.28-.15.07-.32.11-.5.12l.03-.58zm-3.61.97l.76-.57 1.34.37-.73-.83.61-.46 2.32 2.6-.62.46-1.4-1.58.02 1.14-.75.56.03-1.32-1.58-.37z" id="Shape"/>
        <path d="M43.97 49.4l-.05-.08-.05-.07 1.46-.89a.42.42 0 0 0-.16-.11.56.56 0 0 0-.19-.05.67.67 0 0 0-.2 0 .66.66 0 0 0-.19.08.64.64 0 0 0-.23.22.55.55 0 0 0-.07.25h-.66c0-.19.06-.37.17-.52.12-.16.29-.3.47-.4.15-.08.3-.15.48-.19.16-.04.32-.04.48-.02a1.29 1.29 0 0 1 1.07 1c.04.15.04.3 0 .45-.03.15-.1.29-.2.41a1.37 1.37 0 0 1-.83.5 1.16 1.16 0 0 1-.9-.18c-.16-.11-.3-.25-.4-.4zm.78-.14c.06.09.16.16.28.19.13.02.26 0 .37-.08a.6.6 0 0 0 .15-.14.5.5 0 0 0 .1-.16.42.42 0 0 0 0-.17.37.37 0 0 0-.06-.16l-.84.52zm-1.8 1.08l-.44-.74a.39.39 0 0 0-.17-.18.3.3 0 0 0-.25.03l-.1.07a.41.41 0 0 0-.09.07l-.28-.47a1.3 1.3 0 0 1 .36-.26c.13-.07.27-.11.4-.13a.68.68 0 0 1 .58.18c.08.08.15.17.2.27l.49.82.33-.17.29.48-.34.17.3.5-.68.35-.3-.51-.5.25-.28-.48.48-.25zm-3.63 1.12c-.06-.13-.1-.28-.12-.43-.01-.15 0-.3.05-.43a1 1 0 0 1 .22-.37c.22-.23.53-.36.86-.35a.8.8 0 0 1 .4.12l-.12-.27.67-.27 1.44 3.1-.73.3-.56-1.28a.9.9 0 0 1-.55.55 1.14 1.14 0 0 1-1.28-.28c-.12-.11-.2-.24-.28-.39zm.7-.27l.13.17a.57.57 0 0 0 .4.18c.08 0 .16 0 .24-.04a.53.53 0 0 0 .31-.32.54.54 0 0 0 .03-.21.6.6 0 0 0-.83-.52.51.51 0 0 0-.31.32.5.5 0 0 0-.02.2c0 .08.03.15.06.22zm-.92 1.11c-.1.16-.24.3-.4.4a1.76 1.76 0 0 1-1.05.32.82.82 0 0 1-.7-.4c-.1-.16-.17-.33-.22-.5l-.35-1.07.69-.19.07.23c.04-.11.1-.21.2-.28.1-.09.23-.15.36-.18.1-.03.2-.05.3-.05.1 0 .2 0 .3.03.1.03.2.09.28.15.08.09.15.19.18.3.05.13.05.27 0 .4a.88.88 0 0 1-.28.32 2 2 0 0 1-.44.24l-.5.17v.03c.02.1.1.17.2.2s.2.03.31 0c.11-.03.21-.08.3-.15a.98.98 0 0 0 .2-.23l.55.26zm-1.7-.52l.1-.02a2.18 2.18 0 0 0 .46-.19c.06-.03.1-.08.14-.13a.2.2 0 0 0 0-.17.2.2 0 0 0-.06-.1.25.25 0 0 0-.1-.05h-.12l-.12.03a.49.49 0 0 0-.32.21.42.42 0 0 0 0 .36l.02.06zm-1.43-.83l.8 3.3-.8.16-.8-3.3.8-.16zm-1.61.37l.6 3.35-.81.12-.6-3.34.81-.13zm-2.4.38l.23 3.15-.83.05-.23-3.16.83-.04zm-2.8 1.62c.06.06.14.1.22.14.09.04.18.07.28.07.07 0 .14-.01.2-.04.06-.02.1-.08.1-.14a.14.14 0 0 0-.1-.13 2.3 2.3 0 0 0-.33-.1c-.1-.01-.19-.04-.27-.07a1 1 0 0 1-.25-.14.64.64 0 0 1-.18-.2.54.54 0 0 1-.06-.27c0-.24.12-.46.34-.59.1-.06.22-.1.33-.12a1.95 1.95 0 0 1 .94.06c.18.06.34.15.48.27l-.46.42a.89.89 0 0 0-.58-.26.46.46 0 0 0-.2.04.15.15 0 0 0-.1.15c0 .07.05.13.12.16.12.04.24.08.37.1l.25.08c.08.03.15.07.22.12a.53.53 0 0 1 .21.46c0 .12-.03.23-.1.34a.75.75 0 0 1-.24.22c-.1.06-.2.1-.32.13s-.23.04-.35.04c-.18 0-.36-.04-.53-.09a1.16 1.16 0 0 1-.44-.24l.45-.41zm-3.37.87l.1-.64-1.32-.17.12-.64 1.31.17.19-1.21.8.1-.48 3.13-2.23-.3.1-.64 1.4.2zm-2.62-3.07l-.08.3a.74.74 0 0 1 .34-.2c.07-.02.15-.03.22-.03.08 0 .16 0 .24.02.14.03.27.09.38.17a.75.75 0 0 1 .28.58c0 .1-.01.22-.04.33l-.36 1.33-.77-.17.31-1.17a1.06 1.06 0 0 0 .03-.34.28.28 0 0 0-.08-.12.36.36 0 0 0-.16-.08.39.39 0 0 0-.35.07.56.56 0 0 0-.19.3l-.31 1.17-.77-.17.57-2.16.74.17zm-2.8-1.05l-.46 1.15a.93.93 0 0 0-.05.17v.16c0 .04.03.09.07.13a.43.43 0 0 0 .34.12.4.4 0 0 0 .16-.06.5.5 0 0 0 .14-.12c.04-.05.07-.1.09-.16l.45-1.12.75.25-.83 2.09-.72-.24.11-.3a.81.81 0 0 1-.35.16 1.12 1.12 0 0 1-.46-.04.9.9 0 0 1-.35-.2.71.71 0 0 1-.22-.61c.01-.11.04-.22.08-.32l.52-1.3.73.24zm-7.26-2.45a.9.9 0 0 1 .76-.39c.15.01.3.04.44.1.15.05.3.12.43.2l1.13.72-1.93 2.6-1.13-.71a2.08 2.08 0 0 1-.31-.24c-.1-.1-.18-.2-.24-.3a.65.65 0 0 1 .08-.75c.1-.14.24-.24.4-.28a.93.93 0 0 1 .5 0 .88.88 0 0 1-.18-.21.67.67 0 0 1 .04-.77l.01.03zm-.03 1.58a.24.24 0 0 0-.03.26c.06.11.16.2.28.27l.33.21.4-.54-.36-.23a.63.63 0 0 0-.35-.11.33.33 0 0 0-.27.14zm.67-1.1c-.08.1-.09.22-.03.32a.9.9 0 0 0 .3.28l.38.24.45-.6-.4-.24a1.24 1.24 0 0 0-.19-.1.68.68 0 0 0-.18-.05c-.07 0-.13 0-.19.02a.35.35 0 0 0-.14.13zm-1.65.06a1.74 1.74 0 0 1-1.42-.73.67.67 0 0 1-.11-.37c0-.14.04-.28.11-.4.09-.15.2-.3.32-.43l.81-.85.55.43-.16.18a.64.64 0 0 1 .36 0 1 1 0 0 1 .36.18l.2.21c.06.08.1.17.13.26.03.1.03.2 0 .29a.64.64 0 0 1-.16.3.62.62 0 0 1-.39.2 1 1 0 0 1-.44-.04 2 2 0 0 1-.45-.22l-.43-.3-.02.03a.26.26 0 0 0-.08.26c.03.1.1.18.18.24a.8.8 0 0 0 .3.15c.1.02.2.04.31.03l.03.58zm-.43-1.6l.07.06a3.08 3.08 0 0 0 .42.26c.06.03.13.04.2.03.06 0 .12-.03.16-.07a.18.18 0 0 0 .05-.1.2.2 0 0 0 0-.1.3.3 0 0 0-.06-.1.63.63 0 0 0-.08-.08.51.51 0 0 0-.37-.13.5.5 0 0 0-.33.17l-.06.07zm-2.5-1.58c.01.09.03.17.06.25a.57.57 0 0 0 .32.33c.06.03.13.01.17-.03.05-.04.07-.1.03-.16-.04-.1-.1-.2-.16-.29-.05-.07-.1-.15-.13-.23a.84.84 0 0 1-.08-.26.57.57 0 0 1 .03-.26c.04-.09.1-.17.17-.23a.76.76 0 0 1 .7-.2 1.6 1.6 0 0 1 .95.79c.08.16.12.32.12.5h-.64c0-.1-.01-.2-.05-.3a.66.66 0 0 0-.17-.27.43.43 0 0 0-.17-.1.17.17 0 0 0-.18.04.15.15 0 0 0-.03.19c.04.1.1.21.17.3l.12.22a.7.7 0 0 1 .06.24c.01.08 0 .16-.03.24a.57.57 0 0 1-.16.22.72.72 0 0 1-.33.18.85.85 0 0 1-.35 0 1.37 1.37 0 0 1-.6-.32 1.56 1.56 0 0 1-.31-.4 1 1 0 0 1-.13-.46l.63.01zm-.79-3.32l.62.7-.4 1.24.9-.67.5.57-2.85 2.11-.5-.57 1.73-1.29H7.14l-.6-.69 1.43.04.41-1.44zm-2.4-1.18l.09-.05.08-.04.94 1.35c.06-.04.1-.08.13-.14a.45.45 0 0 0 .04-.17.56.56 0 0 0-.1-.37.64.64 0 0 0-.5-.29v-.6c.2 0 .4.06.56.16.2.1.35.26.47.43.1.14.16.28.2.44.04.15.05.3.03.45a1 1 0 0 1-.18.42c-.11.14-.25.26-.4.35a1.42 1.42 0 0 1-1 .2 1.28 1.28 0 0 1-.8-.55c-.09-.13-.15-.27-.19-.42a.9.9 0 0 1 .21-.82c.12-.14.26-.26.43-.35zm.15.71a.45.45 0 0 0-.21.26c-.03.12 0 .24.08.34a.57.57 0 0 0 .32.22c.06.02.12.02.18 0 .06 0 .12-.02.18-.05l-.55-.77zM4.8 39.54l.8-.4a.4.4 0 0 0 .2-.17.24.24 0 0 0-.04-.22.74.74 0 0 0-.06-.1.41.41 0 0 0-.08-.08l.5-.26a1.28 1.28 0 0 1 .29.35c.07.11.11.24.13.37.02.1 0 .2-.03.29a.63.63 0 0 1-.17.23c-.09.08-.19.14-.3.19l-.9.44.19.32-.52.25-.18-.3-.56.27-.37-.64.57-.27-.27-.46.52-.26.28.45zm-1.18-3.35c.15-.06.31-.1.48-.1.15-.02.3 0 .46.04.15.04.29.11.4.2a.99.99 0 0 1 .37.8c0 .13-.05.26-.13.37l.3-.1.27.61-3.37 1.3-.3-.67 1.38-.54c-.12-.04-.22-.1-.32-.16a.85.85 0 0 1-.26-.35.9.9 0 0 1 .03-.84c.07-.13.17-.24.28-.34.12-.09.26-.16.41-.22zm.3.65a.74.74 0 0 0-.2.12.5.5 0 0 0-.02.78.6.6 0 0 0 .2.1.68.68 0 0 0 .78-.3.46.46 0 0 0 .02-.43.52.52 0 0 0-.34-.28.8.8 0 0 0-.44.02zm-1.06-.87a1.52 1.52 0 0 1-.77-1.33c0-.13.05-.26.13-.37.08-.11.2-.2.32-.27.17-.09.35-.16.53-.2l1.17-.32.2.64-.24.07c.12.03.22.1.3.19.09.1.15.2.2.33.02.09.04.18.04.27 0 .1 0 .2-.04.29a.62.62 0 0 1-.16.24.73.73 0 0 1-.32.17.66.66 0 0 1-.45 0 .92.92 0 0 1-.33-.26c-.1-.13-.2-.27-.26-.41a4.49 4.49 0 0 1-.18-.47h-.03a.29.29 0 0 0-.22.18c-.03.1-.03.2 0 .3.03.1.09.19.16.27.07.07.15.14.24.19l-.3.49zm.58-1.56l.02.1.09.22.1.2c.04.05.1.1.15.13.06.02.13.02.19 0a.22.22 0 0 0 .15-.15v-.11a.55.55 0 0 0-.02-.11.46.46 0 0 0-.24-.3.54.54 0 0 0-.38-.01l-.06.03zm.38-1.67l-3.58.7-.16-.75 3.58-.7.16.75zm-.01-1.12l-3.6.52-.13-.74 3.62-.52.1.74zm-.27-2.2l-3.42.17-.04-.76 3.41-.18.05.76zM1.7 26.44a.82.82 0 0 0-.16.21.54.54 0 0 0-.07.25c0 .07.02.13.05.2.02.05.08.09.14.08.07 0 .13-.03.15-.09.04-.1.08-.2.1-.3.02-.1.05-.18.08-.26a.88.88 0 0 1 .15-.22.67.67 0 0 1 .52-.23c.26 0 .5.12.63.32.07.1.11.2.14.3a1.56 1.56 0 0 1-.07.87 1.1 1.1 0 0 1-.29.44l-.46-.42a.83.83 0 0 0 .2-.24c.05-.09.08-.2.08-.3a.37.37 0 0 0-.04-.18.17.17 0 0 0-.17-.08.17.17 0 0 0-.16.1c-.05.1-.09.22-.12.33l-.08.23a.65.65 0 0 1-.63.4.75.75 0 0 1-.36-.08.75.75 0 0 1-.25-.23.93.93 0 0 1-.14-.3c-.03-.1-.04-.2-.04-.32 0-.16.04-.33.1-.48.05-.15.14-.3.26-.4l.44.4zm-.78-2.71l.7.1.2-1.21.67.1-.2 1.2 1.31.18-.12.74-3.38-.47.33-2.05.7.1-.21 1.31zm3.52-2.79l-.32-.07a.64.64 0 0 1 .2.3.86.86 0 0 1 0 .44.78.78 0 0 1-.18.34.8.8 0 0 1-.29.2.95.95 0 0 1-.34.06c-.12 0-.24-.02-.36-.05l-1.44-.33.2-.72 1.26.3a1.33 1.33 0 0 0 .37.03c.05-.01.1-.04.13-.07a.3.3 0 0 0 .09-.15.32.32 0 0 0-.08-.32.63.63 0 0 0-.32-.18l-1.26-.3.19-.7 2.33.54-.18.68zm.9-2.21L4.1 18.3a1.14 1.14 0 0 0-.19-.05h-.17a.3.3 0 0 0-.24.2.35.35 0 0 0-.03.17c.01.06.03.11.06.16.04.04.08.09.13.12.06.03.11.06.18.08l1.2.43-.28.69-2.26-.78.28-.67.31.1a.74.74 0 0 1-.1-.14.59.59 0 0 1-.06-.18.87.87 0 0 1 .28-.75.82.82 0 0 1 .65-.19c.12.01.24.04.35.08l1.4.48-.28.68zm2.72-6.69c.14.08.25.2.32.33.06.12.09.24.09.37-.01.14-.05.28-.1.4-.07.15-.15.28-.24.4l-.78 1.03-2.82-1.8.78-1.03.27-.3c.1-.08.2-.15.33-.2a.8.8 0 0 1 .8.08c.15.08.25.21.3.37.05.14.05.3 0 .45a.93.93 0 0 1 .78-.24c.1.03.19.08.27.14zm-1.71-.04a.3.3 0 0 0-.3-.04.75.75 0 0 0-.28.26l-.23.3.58.38.25-.34c.08-.1.12-.2.13-.32a.3.3 0 0 0-.16-.24zm1.18.63a.32.32 0 0 0-.34-.04.9.9 0 0 0-.3.28l-.27.35.64.42.27-.36.1-.16a.55.55 0 0 0 .06-.17.3.3 0 0 0-.16-.32zm-.18-1.55c0-.18.03-.36.1-.53a1.55 1.55 0 0 1 .7-.78c.13-.06.27-.1.41-.1.15.01.3.05.42.12.17.08.33.18.47.3l.92.74-.48.5-.2-.15a.5.5 0 0 1 0 .33.9.9 0 0 1-.2.33 1.2 1.2 0 0 1-.22.2.91.91 0 0 1-.28.11.74.74 0 0 1-.64-.16.55.55 0 0 1-.22-.37.8.8 0 0 1 .05-.4c.06-.16.14-.3.24-.43l.33-.39-.02-.02a.31.31 0 0 0-.29-.07c-.1.03-.2.09-.26.16a.7.7 0 0 0-.16.27.9.9 0 0 0-.05.3l-.62.04zm1.74-.37l-.07.07-.17.19a.99.99 0 0 0-.12.2.38.38 0 0 0-.03.17c0 .06.03.11.08.15.03.03.07.04.11.05H9a.62.62 0 0 0 .21-.14c.1-.09.15-.21.14-.34a.45.45 0 0 0-.18-.3l-.08-.05zm1.57-2.3c-.1 0-.18 0-.27.03a.64.64 0 0 0-.24.14c-.05.04-.1.1-.12.16a.13.13 0 0 0 .04.16c.04.04.11.05.17.03l.31-.15c.09-.05.17-.09.26-.12.09-.04.18-.06.28-.07.09 0 .18 0 .27.03.1.03.2.08.26.15.19.17.26.41.2.64a.91.91 0 0 1-.14.3c-.06.1-.14.19-.23.27-.14.12-.3.23-.48.3a1.3 1.3 0 0 1-.54.12v-.6c.11.01.22 0 .33-.03.1-.03.2-.09.29-.16a.4.4 0 0 0 .1-.16.14.14 0 0 0-.04-.16.18.18 0 0 0-.2-.04c-.12.04-.23.1-.34.16l-.23.1a.86.86 0 0 1-.26.06.7.7 0 0 1-.26-.03.63.63 0 0 1-.24-.16.64.64 0 0 1-.2-.3.66.66 0 0 1 0-.32c.03-.1.08-.2.14-.3.06-.1.14-.18.22-.25.13-.12.28-.21.45-.28.15-.07.32-.11.49-.11l-.02.58zm3.8-.74l-.78.56-1.33-.37.72.83-.63.46-2.26-2.65.62-.45 1.38 1.6V6.52l.75-.55-.05 1.32 1.57.39zm1.7-2.2l.05.08.04.08-1.47.86a.4.4 0 0 0 .15.11c.06.03.12.04.18.05.14.01.29-.02.4-.1.1-.04.18-.12.24-.2a.55.55 0 0 0 .08-.25h.65c0 .19-.06.36-.17.52-.12.17-.28.32-.48.42a1.35 1.35 0 0 1-1.42.01c-.15-.1-.28-.22-.38-.36a1.2 1.2 0 0 1-.2-.92c.04-.15.11-.29.21-.4.11-.14.25-.25.4-.33a1.36 1.36 0 0 1 .92-.17c.16.04.3.1.43.2.15.11.27.25.37.4zm-.79.13a.47.47 0 0 0-.27-.2.48.48 0 0 0-.37.08.6.6 0 0 0-.16.13.5.5 0 0 0-.09.16.42.42 0 0 0 0 .17c0 .06.02.11.05.16l.84-.5zm1.77-1.24l.42.75c.04.08.1.14.18.18a.3.3 0 0 0 .25-.03l.1-.06a.4.4 0 0 0 .09-.07l.27.47c-.05.05-.1.1-.16.13a1.5 1.5 0 0 1-.61.25c-.11.02-.22 0-.32-.03a.69.69 0 0 1-.25-.16 1.22 1.22 0 0 1-.2-.27l-.47-.83-.34.17-.28-.49.34-.16-.3-.52.7-.33.29.52.5-.24.28.48-.5.24zm3.26-1.06c.07.14.1.29.11.44a1.01 1.01 0 0 1-.68 1.06c-.14.06-.3.08-.46.07a.8.8 0 0 1-.4-.12l.12.27-.68.25-1.38-3.12.73-.28.57 1.29a.9.9 0 0 1 .56-.53 1.14 1.14 0 0 1 1.28.3c.1.1.18.24.23.37zm-.7.27a.67.67 0 0 0-.13-.18.57.57 0 0 0-.4-.19c-.09 0-.17.01-.25.04a.54.54 0 0 0-.32.31.55.55 0 0 0-.04.21c.01.14.07.27.18.37a.61.61 0 0 0 .86.02.5.5 0 0 0 .13-.39.65.65 0 0 0-.06-.2h.02zm.96-1c.1-.16.24-.3.4-.4a1.76 1.76 0 0 1 1.05-.3c.14 0 .28.05.4.12.12.08.22.18.3.3.09.16.16.32.2.5l.34 1.07-.7.18-.06-.22c-.04.1-.11.2-.2.27-.12.08-.24.14-.38.18l-.3.04c-.1 0-.2-.01-.3-.04a.65.65 0 0 1-.44-.45.52.52 0 0 1 .02-.41.89.89 0 0 1 .28-.32 2 2 0 0 1 .45-.23l.51-.16v-.03a.28.28 0 0 0-.2-.2.59.59 0 0 0-.31 0 .8.8 0 0 0-.3.15.99.99 0 0 0-.2.22l-.56-.27zm1.68.54l-.1.03a3.22 3.22 0 0 0-.46.18.42.42 0 0 0-.14.13.2.2 0 0 0 0 .17c.01.04.03.07.06.1l.1.04h.12l.12-.01a.5.5 0 0 0 .32-.22.42.42 0 0 0 .02-.35l-.04-.07zm1.87.73l-.73-3.3.8-.16.74 3.3-.81.16zm1.42-.37L25.09.13l.8-.1.53 3.34-.8.1zm2.45-.26L27.91.06l.83-.04.16 3.16-.83.04zm2.76-1.73a.89.89 0 0 0-.23-.14.67.67 0 0 0-.27-.07.52.52 0 0 0-.2.04.14.14 0 0 0-.1.14c0 .06.03.11.1.13.1.04.22.08.33.1l.27.08c.09.04.17.08.25.14.07.05.13.12.17.2.05.08.07.18.06.28 0 .23-.13.46-.35.58-.1.06-.21.1-.33.12-.12.03-.24.04-.37.04-.2 0-.39-.04-.57-.1a1.23 1.23 0 0 1-.47-.26l.45-.43a.88.88 0 0 0 .59.26c.07 0 .13 0 .2-.04.05-.02.1-.08.09-.14a.16.16 0 0 0-.11-.16 2.19 2.19 0 0 0-.36-.1 1.98 1.98 0 0 1-.25-.09.82.82 0 0 1-.22-.12.53.53 0 0 1-.21-.46c0-.12.03-.24.1-.34a.75.75 0 0 1 .23-.22c.1-.06.21-.1.33-.13.12-.02.23-.04.35-.03.18 0 .36.03.53.08.16.05.3.14.43.25l-.44.4zM34 1.16l-.11.64 1.3.2-.12.61-1.3-.19-.22 1.21-.8-.12.54-3.12 2.22.33-.11.64-1.4-.2zm2.93 2.87l.09-.3a.74.74 0 0 1-.34.19.91.91 0 0 1-.46 0 .9.9 0 0 1-.38-.17.75.75 0 0 1-.2-.27.76.76 0 0 1-.07-.31c0-.11.02-.23.05-.33L36 1.5l.77.18-.33 1.17-.04.17a.41.41 0 0 0 0 .16c.02.05.04.1.08.13.05.04.1.07.16.08.12.03.25 0 .35-.07.1-.07.17-.18.2-.3l.33-1.15.76.18-.61 2.15-.74-.18zm2.55.82l.47-1.11a.93.93 0 0 0 .06-.17V3.4c-.01-.05-.03-.09-.07-.13a.35.35 0 0 0-.14-.1.43.43 0 0 0-.2-.02.4.4 0 0 0-.16.06.65.65 0 0 0-.23.28l-.48 1.1-.74-.27.87-2.08.71.26-.12.29a.82.82 0 0 1 .37-.15 1.1 1.1 0 0 1 .45.04.9.9 0 0 1 .35.22c.08.08.14.17.18.28.03.1.03.21.02.32-.01.11-.04.22-.09.33l-.53 1.28-.72-.27z" id="Shape"/>
      </g>
      <path d="M83.16 31.11a4.2 4.2 0 0 1-.5 2.15 4.02 4.02 0 0 1-1.35 1.4c-.56.35-1.2.6-1.9.76-.72.15-1.45.23-2.2.23H71v-15.6h6.21c.6 0 1.22.07 1.85.2.63.12 1.2.33 1.72.63.51.3.93.71 1.26 1.22.32.52.48 1.17.48 1.96 0 .87-.23 1.59-.7 2.15-.47.57-1.1.97-1.85 1.22v.05c.44.07.85.2 1.24.4a3.6 3.6 0 0 1 1.7 1.84c.16.42.25.88.25 1.4zm-4.27-6.54c0-.53-.2-.91-.61-1.15-.4-.25-1-.37-1.8-.37h-1.85v3.22h2.03c.7 0 1.25-.15 1.64-.43.4-.29.59-.71.59-1.27zm.5 6.19c0-.65-.24-1.1-.72-1.34a4.26 4.26 0 0 0-1.94-.38h-2.1v3.57h2.12c.3 0 .6-.03.91-.08.32-.05.6-.14.86-.27.26-.14.47-.32.63-.57.16-.24.24-.55.24-.93zm12.54.1h-.47c-.4 0-.8.03-1.2.06-.4.04-.76.11-1.08.21a2 2 0 0 0-.78.45c-.2.2-.3.46-.3.79 0 .2.04.38.14.53.1.14.21.26.36.35.15.09.32.15.5.18.2.04.38.06.56.06.73 0 1.3-.2 1.68-.6.4-.41.59-.96.59-1.65v-.37zm-6.63-4.68a6.33 6.33 0 0 1 2.25-1.39c.86-.3 1.74-.46 2.64-.46.92 0 1.7.11 2.34.34a3.5 3.5 0 0 1 1.55 1.06c.4.47.7 1.08.87 1.8.19.73.28 1.6.28 2.59v5.53h-3.3v-1.17h-.07c-.28.46-.7.8-1.27 1.06a4.5 4.5 0 0 1-1.84.37c-.44 0-.9-.06-1.36-.17a4 4 0 0 1-1.29-.58 3.1 3.1 0 0 1-.96-1.05 3.26 3.26 0 0 1-.37-1.63c0-.8.21-1.43.65-1.92.43-.48.99-.86 1.67-1.12a8.87 8.87 0 0 1 2.28-.53c.84-.09 1.65-.13 2.45-.13v-.18c0-.54-.2-.94-.58-1.2a2.47 2.47 0 0 0-1.4-.38c-.52 0-1.02.1-1.5.33-.47.22-.88.48-1.22.79l-1.82-1.96zm19.07 1.74c-.3-.28-.64-.52-1.03-.7-.4-.2-.82-.3-1.26-.3-.34 0-.65.07-.94.2a.7.7 0 0 0-.42.69c0 .3.15.53.47.66.31.13.82.28 1.53.44.41.09.83.21 1.24.37.42.17.8.38 1.14.64a2.84 2.84 0 0 1 1.12 2.33c0 .7-.14 1.28-.42 1.76-.28.47-.64.86-1.09 1.15-.44.3-.95.51-1.5.64-.56.13-1.12.2-1.68.2-.9 0-1.77-.14-2.63-.43a5.53 5.53 0 0 1-2.15-1.27l2.03-2.13c.32.35.72.64 1.19.88.47.23.97.35 1.5.35.29 0 .58-.07.86-.2.3-.15.43-.4.43-.75 0-.33-.17-.58-.52-.74a9.5 9.5 0 0 0-1.66-.51c-.38-.09-.76-.2-1.14-.35a3.64 3.64 0 0 1-1.03-.6A2.83 2.83 0 0 1 97.4 28a3.2 3.2 0 0 1 1.5-2.81c.44-.3.93-.51 1.46-.65.54-.14 1.07-.21 1.6-.21.82 0 1.63.13 2.41.38.79.26 1.45.65 2 1.16l-1.99 2.05zm15.73 7.73h-4.47l-3.6-5.27h-.06v5.27h-3.63V19h3.63v10.13h.07l3.5-4.45h4.38l-4.23 4.96 4.4 6zm8.48-6.74c0-.57-.18-1.07-.54-1.48-.36-.4-.9-.61-1.62-.61a2.51 2.51 0 0 0-1.74.62c-.22.18-.4.4-.53.67-.13.25-.2.52-.22.8h4.65zm3.33 1.39v.44l-.03.42h-7.95c.03.3.12.58.28.83.15.25.35.47.6.65a2.88 2.88 0 0 0 1.74.59 2.88 2.88 0 0 0 2.42-1.15l2.52 1.59a5.08 5.08 0 0 1-2.04 1.72c-.84.4-1.82.61-2.94.61-.82 0-1.6-.13-2.34-.39a5.2 5.2 0 0 1-3.23-2.94 6.08 6.08 0 0 1-.47-2.46c0-.9.16-1.7.47-2.43a5.5 5.5 0 0 1 3.12-3.03 6.4 6.4 0 0 1 4.56-.01c.68.27 1.26.66 1.74 1.17.49.52.87 1.14 1.14 1.88.27.73.4 1.57.4 2.5zm6.16-2.91v4.18c0 .52.1.9.3 1.16.2.26.56.39 1.07.39.18 0 .36-.02.56-.05.2-.03.36-.07.5-.13l.04 2.64a6.7 6.7 0 0 1-3.94.06 2.87 2.87 0 0 1-1.85-2.03c-.13-.48-.2-1-.2-1.6V27.4h-1.76v-2.7h1.74v-2.9h3.54v2.9h2.58v2.7h-2.58zm16.5 2.73c0 .76-.12 1.5-.35 2.2-.23.7-.58 1.33-1.02 1.86a4.86 4.86 0 0 1-3.84 1.77c-.74 0-1.44-.14-2.09-.45a3.43 3.43 0 0 1-1.5-1.28h-.05v1.43h-3.33V19H146v6.85h.05c.3-.37.74-.7 1.3-1.01.56-.31 1.24-.47 2.05-.47a4.88 4.88 0 0 1 3.77 1.72c.45.53.8 1.14 1.04 1.84.24.7.36 1.43.36 2.19zm-3.48 0c0-.35-.05-.7-.16-1.03a2.59 2.59 0 0 0-1.31-1.52c-.33-.17-.7-.25-1.13-.25a2.43 2.43 0 0 0-1.92.88 2.92 2.92 0 0 0-.72 1.94 2.96 2.96 0 0 0 .72 1.94 2.43 2.43 0 0 0 1.93.88 2.48 2.48 0 0 0 2.43-1.8c.1-.34.16-.69.16-1.04zm12.25.75h-.46c-.4 0-.8.02-1.2.05-.4.04-.77.11-1.08.21a2 2 0 0 0-.78.45c-.21.2-.31.46-.31.79 0 .2.04.38.14.53.1.14.22.26.36.35.15.09.32.15.51.18.2.04.37.06.55.06.73 0 1.3-.2 1.69-.6.38-.41.58-.96.58-1.65v-.37zm-6.63-4.7a6.33 6.33 0 0 1 2.26-1.38c.86-.3 1.73-.46 2.63-.46.92 0 1.7.11 2.35.34a3.5 3.5 0 0 1 1.55 1.06c.4.47.68 1.08.87 1.8.18.73.27 1.6.27 2.59v5.53h-3.3v-1.17h-.07c-.28.46-.7.8-1.26 1.06a4.5 4.5 0 0 1-1.84.37c-.44 0-.9-.06-1.37-.17a4 4 0 0 1-1.29-.58 3.1 3.1 0 0 1-.96-1.05 3.26 3.26 0 0 1-.37-1.63c0-.8.22-1.43.65-1.92.43-.48 1-.86 1.67-1.12a8.87 8.87 0 0 1 2.28-.53c.84-.09 1.66-.13 2.45-.13v-.18c0-.54-.2-.94-.57-1.2a2.47 2.47 0 0 0-1.41-.38c-.52 0-1.01.1-1.49.33-.48.22-.88.48-1.22.79l-1.83-1.96zm12.66 9.48V19h3.66v16.65h-3.66zm6.57 0V19h3.66v16.65h-3.66zm12.22 0v-15.6h3.8v15.6h-3.8zm13.27-7.73c-.3-.28-.64-.52-1.04-.7-.4-.2-.82-.3-1.26-.3-.33 0-.65.07-.93.2a.7.7 0 0 0-.43.69c0 .3.16.53.47.66.32.13.83.28 1.53.44.41.09.83.21 1.25.37.42.17.8.38 1.13.64a2.84 2.84 0 0 1 1.12 2.33c0 .7-.13 1.28-.41 1.76-.28.47-.65.86-1.1 1.15-.44.3-.94.51-1.5.64s-1.12.2-1.68.2c-.9 0-1.77-.14-2.63-.43a5.53 5.53 0 0 1-2.15-1.27l2.03-2.13c.32.35.72.64 1.19.88.47.23.97.35 1.5.35.3 0 .58-.07.87-.2.28-.15.43-.4.43-.75 0-.33-.18-.58-.53-.74a9.5 9.5 0 0 0-1.65-.51c-.39-.09-.77-.2-1.15-.35a3.64 3.64 0 0 1-1.02-.6c-.3-.25-.55-.56-.74-.92-.2-.37-.29-.81-.29-1.32a3.2 3.2 0 0 1 1.5-2.82c.44-.3.93-.51 1.47-.65.53-.14 1.06-.21 1.6-.21.81 0 1.62.13 2.4.38.79.26 1.45.65 2 1.16l-1.98 2.05zm13.37-4.65v3.22h6.03v3.1h-6.03v6.06h-3.73v-15.6h10.27v3.22h-6.54zm15.06 12.38v-1.52h-.04a3.1 3.1 0 0 1-1.27 1.28c-.28.16-.6.29-.95.4-.34.1-.7.15-1.09.15-.73 0-1.35-.14-1.86-.4a3.6 3.6 0 0 1-1.23-1.02c-.32-.42-.54-.9-.68-1.44a6.48 6.48 0 0 1-.21-1.64v-6.78h3.63v5.95c0 .3.02.6.07.88.04.28.13.53.25.75.13.22.3.39.5.51.2.13.47.2.81.2.63 0 1.11-.24 1.44-.71.34-.47.5-1.02.5-1.66v-5.92h3.61v10.97h-3.48zm13.5 0v-6c0-.3-.02-.6-.07-.87a2.43 2.43 0 0 0-.25-.74 1.31 1.31 0 0 0-.5-.5 1.57 1.57 0 0 0-.8-.2c-.33 0-.61.07-.85.2-.24.12-.45.29-.6.51-.17.22-.3.47-.37.76-.08.29-.12.58-.12.9v5.94h-3.64V24.68h3.5v1.52h.05a3.62 3.62 0 0 1 1.27-1.28c.28-.16.6-.29.93-.4.34-.1.7-.15 1.08-.15.74 0 1.36.14 1.87.4.52.26.93.6 1.25 1.02.31.42.54.9.68 1.45.14.54.21 1.08.21 1.63v6.78h-3.63z" id="Basketball-Is-Fun" fill="#000"/>
    </g>
  </g>
</svg>
